<svg width="34" height="34" viewBox="0 0 34 34" fill="none" xmlns="http://www.w3.org/2000/svg">
<g id="Clip path group">
<mask id="mask0_50_3241" style="mask-type:luminance" maskUnits="userSpaceOnUse" x="0" y="0" width="34" height="34">
<g id="clippath">
<path id="Vector" d="M33.5967 17C33.5967 26.1147 26.2073 33.5 17.0967 33.5C7.9861 33.5 0.59668 26.1106 0.59668 17C0.59668 7.88942 7.98196 0.5 17.0967 0.5C26.2114 0.5 33.5967 7.88942 33.5967 17Z" fill="white"/>
</g>
</mask>
<g mask="url(#mask0_50_3241)">
<g id="Group">
<g id="Group_2">
<path id="Vector_2" d="M50.5188 0.057373H-16.3252V33.5001H50.5188V0.057373Z" fill="#273074"/>
<g id="Group_3">
<path id="Vector_3" d="M50.5188 0.0656479V3.79346L35.6945 11.2077H50.5188V22.3415H35.7152L50.5188 29.7433V33.4794H43.0467L22.6699 23.2931V33.4794H11.5279V23.2931L-8.84889 33.4794H-16.3045L-16.3128 33.4918V33.5001L-16.3252 33.4794H-16.3128V29.7392L-1.52154 22.3415H-16.3252V11.2077H-1.50085L-16.3128 3.79759V0.0656479H-8.82821L11.5279 10.2437V0.057373H22.6699V10.2437L43.026 0.0656479H50.5188Z" fill="white"/>
<path id="Vector_4" d="M28.2389 11.2119L35.1733 7.74885L35.1857 7.73644L49.6211 0.516652L49.6335 0.508377L50.5106 0.0656738H45.5126L23.2368 11.2119H28.2389Z" fill="#BF0736"/>
<path id="Vector_5" d="M5.97574 11.2121L-2.7542 6.84714L-2.76248 6.83886L-16.3042 0.065918H-16.3125V2.55664L0.990156 11.2121H5.97574Z" fill="#BF0736"/>
<path id="Vector_6" d="M6.02542 22.3289L-8.1866 29.4369L-8.19487 29.4452L-16.3042 33.4999H-11.3393L10.9903 22.3289H6.02542Z" fill="#BF0736"/>
<path id="Vector_7" d="M28.1895 22.3289L40.5851 28.5267L40.5934 28.5391L50.5191 33.4999V31.005L33.1792 22.3289H28.1895Z" fill="#BF0736"/>
<path id="Vector_8" d="M50.5188 13.4378H20.444V0.057373H13.7538V13.4378H-16.3252V20.128H13.7538V33.5001H20.444V20.128H50.5188V13.4378Z" fill="#BF0736"/>
</g>
</g>
</g>
</g>
</g>
</svg>
