<svg width="67" height="70" viewBox="0 0 67 70" fill="none" xmlns="http://www.w3.org/2000/svg">
<path d="M33.5015 0.139282C15.5138 0.139282 0.931152 13.5868 0.931152 30.1726C0.931152 35.669 2.53841 40.8192 5.33644 45.2509C4.75571 52.8648 9.10527 61.4026 17.1679 66.9078C19.0186 68.1719 20.9514 69.1955 22.9077 69.9844C23.0984 70.0607 23.2773 69.8407 23.1629 69.6706C23.1365 69.6296 23.1071 69.5885 23.0808 69.5445C20.1537 65.0806 23.8404 59.2821 29.1373 59.9391C30.5627 60.1151 32.0204 60.206 33.4986 60.206C34.4664 60.206 35.4255 60.1679 36.3729 60.0887C50.5449 58.9478 62.1153 49.4333 65.233 36.9389C65.4765 35.9799 65.6671 35.0003 65.802 34.006C65.978 32.7507 66.066 31.4719 66.066 30.1726C66.0689 13.5868 51.4893 0.139282 33.5015 0.139282Z" fill="#EF57A4"/>
<path opacity="0.1" d="M66.0689 30.1726C66.0689 31.4719 65.9809 32.7507 65.8049 34.006C65.67 35.0003 65.4793 35.9799 65.2359 36.9389C62.1211 49.4333 50.5477 58.9448 36.3757 60.0858C35.4284 60.1649 34.4722 60.2031 33.5014 60.2031C32.7682 60.2031 32.0408 60.1796 31.3223 60.1356C31.5686 60.1209 31.8121 60.1063 32.0526 60.0858C46.2246 58.9448 57.798 49.4304 60.9127 36.9389C61.1562 35.9799 61.3468 34.9973 61.4817 34.006C61.6577 32.7507 61.7457 31.4719 61.7457 30.1726C61.7486 14.2555 48.3187 1.23034 31.3399 0.20674C32.0555 0.162746 32.777 0.139282 33.5014 0.139282C51.4892 0.139282 66.0689 13.5868 66.0689 30.1726Z" fill="#4C44FF"/>
<g opacity="0.1">
<path d="M27.2801 25.9874C29.7857 25.3914 31.3337 22.877 30.7377 20.3714C30.1417 17.8658 27.6274 16.3178 25.1218 16.9138C22.6162 17.5098 21.0681 20.0241 21.6641 22.5297C22.2601 25.0353 24.7744 26.5834 27.2801 25.9874Z" fill="#4C44FF"/>
<path d="M42.2239 26.1163C44.7994 26.1163 46.8873 24.0284 46.8873 21.4529C46.8873 18.8774 44.7994 16.7896 42.2239 16.7896C39.6484 16.7896 37.5605 18.8774 37.5605 21.4529C37.5605 24.0284 39.6484 26.1163 42.2239 26.1163Z" fill="#4C44FF"/>
<path d="M35.1704 46.9227C35.3904 46.9109 35.6104 46.8933 35.8304 46.8728C35.8949 46.8669 35.9594 46.8581 36.0239 46.8523C36.2146 46.8318 36.4023 46.8083 36.59 46.779C36.6457 46.7702 36.6985 46.7643 36.7542 46.7555C36.9771 46.7203 37.1942 46.6822 37.4142 46.6382C37.4816 46.6264 37.5461 46.6118 37.6136 46.5971C37.8306 46.5502 38.0447 46.5033 38.2588 46.4475C45.2774 44.6526 50.4834 38.2764 50.4834 30.7064C50.4834 28.5214 48.7119 26.7499 46.5268 26.7499C44.3418 26.7499 42.5703 28.5214 42.5703 30.7064C42.5703 34.4518 40.0861 37.6282 36.6809 38.6752C36.5108 38.728 36.3407 38.772 36.1677 38.8131C36.1266 38.8219 36.0855 38.8336 36.0445 38.8424C35.6778 38.9245 35.3024 38.9803 34.9182 39.0125C34.8889 39.0125 34.8596 39.0184 34.8273 39.0184C34.6308 39.033 34.4343 39.0418 34.2348 39.0418C34.229 39.0418 34.226 39.0418 34.2202 39.0418C29.633 39.033 25.9023 35.2994 25.9023 30.7094C25.9023 28.5243 24.1308 26.7528 21.9458 26.7528C19.7608 26.7528 17.9893 28.5243 17.9893 30.7094C17.9893 39.6666 25.2776 46.9549 34.2348 46.9549C34.2759 46.9549 34.314 46.9549 34.3522 46.952C34.5457 46.952 34.7393 46.9461 34.9329 46.9373C35.0121 46.9344 35.0913 46.9315 35.1704 46.9256V46.9227Z" fill="#4C44FF"/>
</g>
<path d="M38.9215 42.7814C38.9215 44.0953 38.3907 45.2832 37.5313 46.1455C36.2438 46.4769 34.8946 46.6529 33.5044 46.6529C31.3193 46.6529 29.5479 44.8814 29.5479 42.6963C29.5479 40.5113 31.3193 38.7398 33.5044 38.7398C34.3579 38.7398 35.185 38.6107 35.9593 38.3702C37.7014 39.0771 38.9245 40.7841 38.9245 42.7785L38.9215 42.7814Z" fill="#EF57A4"/>
<path d="M25.4651 25.8202C28.0407 25.8202 30.1285 23.7323 30.1285 21.1568C30.1285 18.5813 28.0407 16.4934 25.4651 16.4934C22.8896 16.4934 20.8018 18.5813 20.8018 21.1568C20.8018 23.7323 22.8896 25.8202 25.4651 25.8202Z" fill="#33326F"/>
<path d="M41.491 25.8202C44.0665 25.8202 46.1544 23.7323 46.1544 21.1568C46.1544 18.5813 44.0665 16.4934 41.491 16.4934C38.9155 16.4934 36.8276 18.5813 36.8276 21.1568C36.8276 23.7323 38.9155 25.8202 41.491 25.8202Z" fill="white"/>
<path d="M33.5015 46.6558C31.3164 46.6558 29.5449 44.8843 29.5449 42.6993C29.5449 40.5142 31.3164 38.7427 33.5015 38.7427C38.0974 38.7427 41.834 35.0032 41.834 30.4102C41.834 28.2252 43.6055 26.4537 45.7905 26.4537C47.9755 26.4537 49.747 28.2252 49.747 30.4102C49.747 39.3674 42.4587 46.6558 33.5015 46.6558Z" fill="white"/>
<path opacity="0.15" d="M38.9215 42.7814C38.9215 44.0954 38.3907 45.2832 37.5313 46.1455C36.2438 46.477 34.8946 46.6529 33.5044 46.6529C31.3193 46.6529 29.5479 44.8814 29.5479 42.6964C29.5479 40.5114 31.3193 38.7398 33.5044 38.7398C34.3579 38.7398 35.185 38.6108 35.9593 38.3703C37.7014 39.0771 38.9245 40.7841 38.9245 42.7785L38.9215 42.7814Z" fill="#4C44FF"/>
<path d="M33.5014 46.6558C24.5442 46.6558 17.2559 39.3674 17.2559 30.4102C17.2559 28.2252 19.0274 26.4537 21.2124 26.4537C23.3974 26.4537 25.1689 28.2252 25.1689 30.4102C25.1689 35.0061 28.9085 38.7427 33.5014 38.7427C35.6865 38.7427 37.458 40.5142 37.458 42.6993C37.458 44.8843 35.6865 46.6558 33.5014 46.6558Z" fill="#33326F"/>
</svg>
